<svg xmlns="http://www.w3.org/2000/svg" viewBox="8 22 206 49" role="img" aria-labelledby="title desc">
<title id="title">bruma</title>
<desc id="desc">Editorial serif wordmark for bruma.</desc>
<defs>
<g>
<g id="glyph-0-0">
<path d="M 35.53125 -13 C 35.53125 -11 35.167969 -9.128906 34.4375 -7.390625 C 33.707031 -5.652344 32.683594 -4.144531 31.359375 -2.875 C 30.035156 -1.605469 28.527344 -0.636719 26.828125 0.03125 C 25.128906 0.699219 23.332031 1.03125 21.4375 1.03125 C 19.207031 1.03125 17.292969 0.597656 15.6875 -0.265625 C 14.082031 -1.128906 12.761719 -2.238281 11.71875 -3.59375 C 9.800781 -1.675781 8.417969 -0.136719 7.5625 1.03125 L 5.125 1.03125 L 5.125 -33.59375 C 5.125 -34.78125 4.984375 -35.652344 4.703125 -36.203125 C 4.421875 -36.753906 3.953125 -37.109375 3.296875 -37.265625 C 2.640625 -37.421875 1.625 -37.519531 0.25 -37.5625 L 0.25 -40.375 L 13.1875 -43.125 L 13.1875 -22.90625 C 14.25 -23.90625 15.484375 -24.777344 16.890625 -25.515625 C 18.296875 -26.253906 20.136719 -26.625 22.40625 -26.625 C 24.53125 -26.625 26.421875 -26.238281 28.078125 -25.46875 C 29.734375 -24.699219 31.113281 -23.65625 32.21875 -22.34375 C 33.324219 -21.03125 34.152344 -19.574219 34.703125 -17.96875 C 35.253906 -16.363281 35.53125 -14.707031 35.53125 -13 Z M 26.875 -13.25 C 26.875 -15.855469 26.441406 -18.15625 25.578125 -20.15625 C 24.714844 -22.15625 23.011719 -23.15625 20.46875 -23.15625 C 19.550781 -23.15625 18.652344 -22.972656 17.765625 -22.609375 C 16.878906 -22.246094 16.058594 -21.75 15.296875 -21.125 C 14.535156 -20.5 13.832031 -19.769531 13.1875 -18.9375 L 13.1875 -6.21875 C 14.4375 -4.59375 15.683594 -3.558594 16.921875 -3.109375 C 18.160156 -2.660156 19.261719 -2.4375 20.21875 -2.4375 C 21.96875 -2.4375 23.34375 -3.015625 24.34375 -4.171875 C 25.34375 -5.328125 26.015625 -6.707031 26.359375 -8.3125 C 26.703125 -9.917969 26.875 -11.5625 26.875 -13.25 Z M 26.875 -13.25 "/>
</g>
<g id="glyph-0-1">
<path d="M 28.21875 -21.6875 C 28.21875 -20.480469 27.847656 -19.527344 27.109375 -18.828125 C 26.371094 -18.128906 25.5 -17.78125 24.5 -17.78125 C 23.3125 -17.78125 22.269531 -18.363281 21.375 -19.53125 C 20.957031 -20.050781 20.613281 -20.425781 20.34375 -20.65625 C 20.074219 -20.886719 19.6875 -21 19.1875 -21 C 17.5625 -21 16.296875 -20.121094 15.390625 -18.359375 C 14.484375 -16.597656 14.03125 -14.769531 14.03125 -12.875 L 14.03125 -7.4375 C 14.03125 -5.6875 14.253906 -4.488281 14.703125 -3.84375 C 15.152344 -3.199219 16.332031 -2.875 18.25 -2.875 L 19.90625 -2.875 L 19.90625 0 L 0.5 0 L 0.5 -2.875 L 2.125 -2.875 C 3.875 -2.875 4.949219 -3.207031 5.34375 -3.875 C 5.738281 -4.542969 5.9375 -5.730469 5.9375 -7.4375 L 5.9375 -16.5625 C 5.9375 -17.957031 5.796875 -18.957031 5.515625 -19.5625 C 5.234375 -20.167969 4.730469 -20.566406 4 -20.765625 C 3.269531 -20.964844 2.105469 -21.0625 0.5 -21.0625 L 0.5 -23.9375 L 12.6875 -26.625 C 13 -25.5625 13.292969 -23.300781 13.5625 -19.84375 C 14.144531 -21.074219 14.910156 -22.199219 15.859375 -23.21875 C 16.808594 -24.238281 17.871094 -25.0625 19.046875 -25.6875 C 20.222656 -26.3125 21.425781 -26.625 22.65625 -26.625 C 24.363281 -26.625 25.71875 -26.144531 26.71875 -25.1875 C 27.71875 -24.230469 28.21875 -23.0625 28.21875 -21.6875 Z M 28.21875 -21.6875 "/>
</g>
<g id="glyph-0-2">
<path d="M 36.75 -0.1875 C 36.144531 -0.144531 35.09375 -0.078125 33.59375 0.015625 C 32.09375 0.109375 30.410156 0.246094 28.546875 0.421875 C 26.683594 0.597656 25.1875 0.800781 24.0625 1.03125 L 24.0625 -3.53125 C 21.375 -0.449219 18.15625 1.09375 14.40625 1.09375 C 11.675781 1.09375 9.65625 0.511719 8.34375 -0.65625 C 7.03125 -1.824219 6.21875 -3.109375 5.90625 -4.515625 C 5.59375 -5.921875 5.4375 -7.425781 5.4375 -9.03125 L 5.4375 -18.25 C 5.4375 -19.480469 5.363281 -20.378906 5.21875 -20.953125 C 5.074219 -21.527344 4.6875 -21.964844 4.0625 -22.265625 C 3.4375 -22.566406 2.40625 -22.71875 0.96875 -22.71875 L 0.96875 -25.59375 L 13.5 -25.59375 L 13.5 -8.375 C 13.5 -4.832031 14.863281 -3.0625 17.59375 -3.0625 C 19.15625 -3.0625 20.480469 -3.621094 21.5625 -4.734375 C 22.644531 -5.847656 23.480469 -6.917969 24.0625 -7.9375 L 24.0625 -18.25 C 24.0625 -19.542969 23.984375 -20.46875 23.828125 -21.03125 C 23.671875 -21.59375 23.269531 -22.015625 22.625 -22.296875 C 21.980469 -22.578125 20.90625 -22.71875 19.40625 -22.71875 L 19.40625 -25.59375 L 32.125 -25.59375 L 32.125 -6.78125 C 32.125 -5.800781 32.21875 -5.074219 32.40625 -4.59375 C 32.59375 -4.113281 33.019531 -3.746094 33.6875 -3.484375 C 34.355469 -3.222656 35.375 -3.082031 36.75 -3.0625 Z M 36.75 -0.1875 "/>
</g>
<g id="glyph-0-3">
<path d="M 60.34375 0 L 43 0 L 43 -2.875 C 44.4375 -2.875 45.457031 -3.035156 46.0625 -3.359375 C 46.667969 -3.683594 47.035156 -4.128906 47.171875 -4.703125 C 47.308594 -5.277344 47.375 -6.1875 47.375 -7.4375 L 47.375 -16.90625 C 47.375 -18.28125 47.066406 -19.550781 46.453125 -20.71875 C 45.839844 -21.886719 44.4375 -22.46875 42.25 -22.46875 C 40.6875 -22.46875 39.332031 -22.078125 38.1875 -21.296875 C 37.042969 -20.515625 36.160156 -19.441406 35.546875 -18.078125 C 34.933594 -16.714844 34.625 -15.1875 34.625 -13.5 L 34.625 -7.4375 C 34.625 -6.144531 34.703125 -5.214844 34.859375 -4.640625 C 35.015625 -4.066406 35.417969 -3.628906 36.0625 -3.328125 C 36.707031 -3.027344 37.761719 -2.875 39.21875 -2.875 L 39.21875 0 L 22.21875 0 L 22.21875 -2.875 C 23.613281 -2.875 24.621094 -3.03125 25.234375 -3.34375 C 25.847656 -3.65625 26.222656 -4.105469 26.359375 -4.6875 C 26.496094 -5.269531 26.5625 -6.1875 26.5625 -7.4375 L 26.5625 -17.28125 C 26.5625 -19.46875 25.988281 -20.878906 24.84375 -21.515625 C 23.699219 -22.152344 22.625 -22.46875 21.625 -22.46875 C 20.292969 -22.46875 19 -22.144531 17.75 -21.5 C 16.5 -20.855469 15.550781 -20.019531 14.90625 -19 C 14.449219 -18.25 14.152344 -17.511719 14.015625 -16.78125 C 13.878906 -16.050781 13.8125 -15.136719 13.8125 -14.03125 L 13.8125 -7.4375 C 13.8125 -6.144531 13.890625 -5.214844 14.046875 -4.640625 C 14.203125 -4.066406 14.613281 -3.628906 15.28125 -3.328125 C 15.949219 -3.027344 17 -2.875 18.4375 -2.875 L 18.4375 0 L 1.34375 0 L 1.34375 -2.875 C 2.761719 -2.875 3.777344 -3.027344 4.390625 -3.328125 C 5.003906 -3.628906 5.386719 -4.074219 5.53125 -4.65625 C 5.675781 -5.238281 5.75 -6.167969 5.75 -7.4375 L 5.75 -18.125 C 5.75 -20.082031 4.488281 -21.0625 1.96875 -21.0625 L 0.375 -21.0625 L 0.375 -23.9375 L 13.5625 -26.625 C 13.730469 -25.519531 13.8125 -23.9375 13.8125 -21.875 C 15.292969 -23.355469 16.859375 -24.515625 18.515625 -25.359375 C 20.171875 -26.203125 22.082031 -26.625 24.25 -26.625 C 26.269531 -26.625 28.207031 -26.230469 30.0625 -25.4375 C 31.917969 -24.644531 33.3125 -23.1875 34.25 -21.0625 C 36.144531 -23.3125 37.96875 -24.800781 39.71875 -25.53125 C 41.46875 -26.261719 43.269531 -26.625 45.125 -26.625 C 48.417969 -26.625 50.957031 -25.84375 52.75 -24.28125 C 54.542969 -22.71875 55.4375 -20.324219 55.4375 -17.09375 L 55.4375 -7.4375 C 55.4375 -6.269531 55.496094 -5.390625 55.609375 -4.796875 C 55.722656 -4.203125 56.058594 -3.734375 56.609375 -3.390625 C 57.160156 -3.046875 58.042969 -2.875 59.25 -2.875 L 60.34375 -2.875 Z M 60.34375 0 "/>
</g>
<g id="glyph-0-4">
<path d="M 34.6875 -6.59375 C 34.6875 -5.011719 34.363281 -3.660156 33.71875 -2.546875 C 33.074219 -1.433594 32.203125 -0.609375 31.109375 -0.078125 C 30.015625 0.453125 28.78125 0.71875 27.40625 0.71875 C 25.65625 0.71875 24.199219 0.308594 23.03125 -0.515625 C 21.863281 -1.339844 21.167969 -2.324219 20.9375 -3.46875 C 17.457031 -0.675781 13.957031 0.71875 10.4375 0.71875 C 8.1875 0.71875 6.34375 0.171875 4.90625 -0.921875 C 3.46875 -2.015625 2.75 -3.457031 2.75 -5.25 C 2.75 -6.730469 3.136719 -8.066406 3.90625 -9.265625 C 4.675781 -10.464844 5.808594 -11.53125 7.296875 -12.46875 C 8.785156 -13.40625 10.5625 -14.234375 12.625 -14.953125 C 14.6875 -15.671875 17.261719 -16.425781 20.34375 -17.21875 L 20.34375 -19 C 20.34375 -20.480469 19.996094 -21.640625 19.296875 -22.484375 C 18.597656 -23.328125 17.3125 -23.75 15.4375 -23.75 C 13.832031 -23.75 12.675781 -23.417969 11.96875 -22.75 C 11.261719 -22.082031 10.792969 -21.074219 10.5625 -19.71875 C 10.394531 -18.761719 10.089844 -17.972656 9.640625 -17.359375 C 9.191406 -16.746094 8.261719 -16.4375 6.84375 -16.4375 C 5.96875 -16.4375 5.199219 -16.6875 4.53125 -17.1875 C 3.863281 -17.6875 3.53125 -18.425781 3.53125 -19.40625 C 3.53125 -21.34375 4.582031 -23.03125 6.6875 -24.46875 C 8.792969 -25.90625 12.019531 -26.625 16.375 -26.625 C 20.957031 -26.625 24.109375 -25.855469 25.828125 -24.3125 C 27.546875 -22.769531 28.40625 -20.707031 28.40625 -18.125 L 28.40625 -8.25 C 28.40625 -7 28.4375 -6.082031 28.5 -5.5 C 28.5625 -4.917969 28.734375 -4.472656 29.015625 -4.171875 C 29.296875 -3.871094 29.738281 -3.71875 30.34375 -3.71875 C 30.886719 -3.71875 31.359375 -4 31.765625 -4.5625 C 32.171875 -5.125 32.375 -5.800781 32.375 -6.59375 Z M 20.34375 -6.34375 L 20.34375 -14.09375 C 16.386719 -12.84375 13.871094 -11.621094 12.796875 -10.421875 C 11.722656 -9.222656 11.1875 -8.050781 11.1875 -6.90625 C 11.1875 -5.949219 11.480469 -5.175781 12.0625 -4.59375 C 12.644531 -4.011719 13.46875 -3.71875 14.53125 -3.71875 C 15.675781 -3.71875 16.6875 -3.957031 17.5625 -4.4375 C 18.4375 -4.917969 19.363281 -5.550781 20.34375 -6.34375 Z M 20.34375 -6.34375 "/>
</g>
</g>
</defs>
<g fill="#17201D">
<use href="#glyph-0-0" x="10" y="67.34375"/>
<use href="#glyph-0-1" x="48" y="67.34375"/>
<use href="#glyph-0-2" x="78" y="67.34375"/>
<use href="#glyph-0-3" x="116" y="67.34375"/>
<use href="#glyph-0-4" x="177" y="67.34375"/>
</g>
</svg>
